<svg xmlns="http://www.w3.org/2000/svg" version="1.1" xmlns:xlink="http://www.w3.org/1999/xlink" xmlns:svgjs="http://svgjs.dev/svgjs" width="1500" height="1500" viewBox="0 0 1500 1500"><rect width="1500" height="1500" fill="#ffffff"></rect><g transform="matrix(0.6666666666666666,0,0,0.6666666666666666,249.39393939393938,438.5856950067477)"><svg viewBox="0 0 396 247" data-background-color="#1f2d5a" preserveAspectRatio="xMidYMid meet" height="935" width="1500" xmlns="http://www.w3.org/2000/svg" xmlns:xlink="http://www.w3.org/1999/xlink"><g id="tight-bounds" transform="matrix(1,0,0,1,0.2400000000000091,-0.09999999999999432)"><svg viewBox="0 0 395.52 247.2" height="247.2" width="395.52"><g><svg></svg></g><g><svg viewBox="0 0 395.52 247.2" height="247.2" width="395.52"><mask id="eacbd7bc-374a-43d9-9e55-fcf73d985aca"><rect width="640" height="400" fill="white"></rect><g transform="matrix(1,0,0,1,39.55199999999999,101.06481973444978)"><svg viewBox="0 0 316.416 45.07036053110042" height="45.07036053110042" width="316.416"><g><svg viewBox="0 0 316.416 45.07036053110042" height="45.07036053110042" width="316.416"><g><svg viewBox="0 0 316.416 45.07036053110042" height="45.07036053110042" width="316.416"><g><svg viewBox="0 0 316.416 45.07036053110042" height="45.07036053110042" width="316.416"><g id="SvgjsG1880"><svg viewBox="0 0 316.416 45.07036053110042" height="45.07036053110042" width="316.416" id="SvgjsSvg1879"><g><svg viewBox="0 0 316.416 24.652401697312584" height="24.652401697312584" width="316.416"><g transform="matrix(1,0,0,1,0,0)"><svg width="316.416" viewBox="-0.19999999999999996 -32.55 425.15999999999997 34.050000000000004" height="24.652401697312584" data-palette-color="#fbfbfb"><path d="M3.8-31.05L12.2-31.05 12.2-6.25Q12.2-2.4 10.45-0.95 8.7 0.5 4 0.5L4 0.5 1.45 0.5 0.8-6.3 2.5-6.3Q3.35-6.3 3.58-6.53 3.8-6.75 3.8-7.5L3.8-7.5 3.8-31.05ZM33.2-31.05L38.9 0 30.55 0 29.6-4.9 23.7-4.9 22.75 0 14.8 0 20.5-31.05 33.2-31.05ZM24.8-10.75L28.65-10.75 26.9-21.85 26.55-21.85 24.8-10.75ZM64.45-31.05L64.45 0 55.95 0 55.95-11.75 50.09-11.75 50.09 0 41.5 0 41.5-31.05 50.09-31.05 50.09-18.85 55.95-18.85 55.95-31.05 64.45-31.05ZM85.24-31.05L90.94 0 82.59 0 81.64-4.9 75.74-4.9 74.79 0 66.84 0 72.54-31.05 85.24-31.05ZM76.84-10.75L80.69-10.75 78.94-21.85 78.59-21.85 76.84-10.75ZM116.19-31.05L116.19 0 107.99 0 101.54-14.45 101.14-14.45 101.14 0 93.54 0 93.54-31.05 101.99-31.05 108.14-16.15 108.54-16.15 108.54-31.05 116.19-31.05ZM140.64-29.95L139.29-21.8Q134.49-23.25 132.26-23.25 130.04-23.25 129.21-21.3 128.39-19.35 128.39-15.13 128.39-10.9 129.16-8.97 129.94-7.05 132.34-7.05L132.34-7.05Q133.04-7.05 135.04-7.45L135.04-7.45 135.04-11.25 132.79-11.25 132.79-17.15 142.34-17.15 142.34 0 136.44 0 135.64-1.6 135.44-1.6Q134.59-0.9 134.09-0.55L134.09-0.55Q132.69 0.5 130.14 0.5L130.14 0.5Q119.69 0.5 119.69-15.3L119.69-15.3Q119.69-23.2 122.44-27.38 125.19-31.55 131.69-31.55L131.69-31.55Q136.89-31.55 140.64-29.95L140.64-29.95ZM155.54-31.05L155.54 0 147.04 0 147.04-31.05 155.54-31.05ZM181.68-21.2L181.68-21.2Q181.68-18.4 180.83-16.55 179.98-14.7 178.18-13.2L178.18-13.2 182.33 0 173.08 0 169.98-11.2 168.83-11.2 168.83 0 160.43 0 160.43-31.05 172.03-31.05Q177.03-31.05 179.36-28.7 181.68-26.35 181.68-21.2ZM170.13-16.45Q171.43-16.45 171.98-17.2 172.53-17.95 172.53-19.93 172.53-21.9 171.98-22.68 171.43-23.45 170.18-23.45L170.18-23.45 168.83-23.45 168.83-16.45 170.13-16.45ZM218.58-31.05L218.58 0 210.08 0 210.08-11.75 204.23-11.75 204.23 0 195.63 0 195.63-31.05 204.23-31.05 204.23-18.85 210.08-18.85 210.08-31.05 218.58-31.05ZM224.65-27.8Q227.53-31.55 234.08-31.55 240.63-31.55 243.45-27.85 246.28-24.15 246.28-15.83 246.28-7.5 243.38-3.5 240.48 0.5 233.98 0.5 227.48 0.5 224.63-3.45 221.78-7.4 221.78-15.73 221.78-24.05 224.65-27.8ZM237.68-15.8Q237.68-20.4 236.95-22.03 236.23-23.65 234-23.65 231.78-23.65 231.13-22.03 230.48-20.4 230.48-15.85L230.48-15.85 230.48-14.65Q230.48-9.8 231.2-8.28 231.93-6.75 234.15-6.75 236.38-6.75 237.03-8.2 237.68-9.65 237.68-14.2L237.68-14.2 237.68-15.8ZM258.42-10.2Q258.42-8.65 259.07-7.9 259.72-7.15 261.2-7.15 262.67-7.15 263.25-7.88 263.82-8.6 263.82-10.25L263.82-10.25 263.82-31.05 272.42-31.05 272.42-9.75Q272.42-4.4 269.5-1.95 266.57 0.5 260.9 0.5 255.22 0.5 252.45-1.93 249.67-4.35 249.67-9.65L249.67-9.65 249.67-31.05 258.42-31.05 258.42-10.2ZM275.42-21.7Q275.42-26.15 278.02-28.85 280.62-31.55 285.15-31.55 289.67-31.55 294.42-30.65L294.42-30.65 293.42-22.65Q288.47-23.8 286.62-23.8L286.62-23.8Q284.27-23.8 284.27-21.9L284.27-21.9Q284.27-21.15 285.4-20.45 286.52-19.75 288.12-18.98 289.72-18.2 291.32-17.13 292.92-16.05 294.05-14.05 295.17-12.05 295.17-9.45L295.17-9.45Q295.17-4.7 292.62-2.1 290.07 0.5 285.4 0.5 280.72 0.5 276.27-0.95L276.27-0.95 276.82-8.4Q282.17-6.85 284.27-6.85 286.37-6.85 286.37-8.7L286.37-8.7Q286.37-9.65 285.25-10.45 284.12-11.25 282.52-12.05 280.92-12.85 279.3-13.9 277.67-14.95 276.55-16.95 275.42-18.95 275.42-21.7L275.42-21.7ZM315.47-7L314.97 0 298.17 0 298.17-31.05 315.47-31.05 314.97-23.4 306.72-23.4 306.72-18.75 313.87-18.75 313.87-12.15 306.72-12.15 306.72-7 315.47-7ZM350.71-8.95L350.71-8.95Q350.71 0 341.11 0L341.11 0 328.86 0 328.86-31.05 340.86-31.05Q345.61-31.05 347.91-29.13 350.21-27.2 350.21-23 350.21-18.8 346.76-16.6L346.76-16.6 346.76-16.3Q350.71-14.75 350.71-8.95ZM339.11-5.55Q340.61-5.55 341.14-6.23 341.66-6.9 341.66-9.03 341.66-11.15 341.11-12.03 340.56-12.9 339.11-12.9L339.11-12.9 337.51-12.9 337.51-5.55 339.11-5.55ZM339.16-17.75Q340.31-17.75 340.76-18.45 341.21-19.15 341.21-20.93 341.21-22.7 340.74-23.43 340.26-24.15 339.11-24.15L339.11-24.15 337.51-24.15 337.51-17.75 339.16-17.75ZM355.49-27.8Q358.36-31.55 364.91-31.55 371.46-31.55 374.29-27.85 377.11-24.15 377.11-15.83 377.11-7.5 374.21-3.5 371.31 0.5 364.81 0.5 358.31 0.5 355.46-3.45 352.61-7.4 352.61-15.73 352.61-24.05 355.49-27.8ZM368.51-15.8Q368.51-20.4 367.79-22.03 367.06-23.65 364.84-23.65 362.61-23.65 361.96-22.03 361.31-20.4 361.31-15.85L361.31-15.85 361.31-14.65Q361.31-9.8 362.04-8.28 362.76-6.75 364.99-6.75 367.21-6.75 367.86-8.2 368.51-9.65 368.51-14.2L368.51-14.2 368.51-15.8ZM397.11-31.05L402.81 0 394.46 0 393.51-4.9 387.61-4.9 386.66 0 378.71 0 384.41-31.05 397.11-31.05ZM388.71-10.75L392.56-10.75 390.81-21.85 390.46-21.85 388.71-10.75ZM423.96-31.05L423.46-23.5 417.66-23.5 417.66 0 409.11 0 409.11-23.5 402.96-23.5 403.46-31.05 423.96-31.05Z" opacity="1" transform="matrix(1,0,0,1,0,0)" fill="black" class="wordmark-text-0" id="SvgjsPath1878" stroke-width="1" stroke="black" stroke-linejoin="round"></path></svg></g></svg></g><g transform="matrix(1,0,0,1,83.795869619639,30.296150086970293)"><svg viewBox="0 0 148.82426076072198 14.774210444130127" height="14.774210444130127" width="148.82426076072198"><g transform="matrix(1,0,0,1,0,0)"><svg width="148.82426076072198" viewBox="0.25 -37.84 388.29 39.45" height="14.774210444130127" data-palette-color="#fbfbfb"><path d="M27-23.46L27-23.46Q27-19.8 25.27-17.38 23.54-14.97 20.61-13.76 17.68-12.55 14.09-12.55L14.09-12.55 13.94-12.55Q12.96-12.55 11.78-12.63 10.6-12.72 10.4-12.74L10.4-12.74 10.4-3.44Q10.4-3.08 10.66-2.73 10.91-2.39 11.45-2.34L11.45-2.34 14.75-2.15 14.75 0 1.61 0 1.61-2.15 4.25-2.34Q4.79-2.39 5.07-2.73 5.35-3.08 5.35-3.44L5.35-3.44 5.35-30.1Q5.35-30.47 5.07-30.82 4.79-31.18 4.25-31.2L4.25-31.2 1.25-31.4 1.25-33.54 13.21-33.54Q20.29-33.54 23.65-31.27 27-29 27-23.46ZM21.8-23.39L21.8-23.39Q21.8-27.03 19.76-29.06 17.72-31.1 12.94-31.1L12.94-31.1Q12.26-31.1 11.33-31.08 10.4-31.05 10.4-31.05L10.4-31.05 10.4-15.31Q10.52-15.31 11.51-15.17 12.5-15.04 13.21-15.04L13.21-15.04 13.35-15.04Q17.24-15.04 19.52-17.07 21.8-19.09 21.8-23.39ZM48-23.95L48-18.99 46.04-18.99Q45.58-19.56 44.93-19.96 44.28-20.36 43.36-20.36L43.36-20.36Q42.16-20.36 40.9-19.53 39.65-18.7 38.35-17.26L38.35-17.26 38.35-3.2Q38.35-2.15 39.4-2.1L39.4-2.1 42.7-1.95 42.7 0 30.2 0 30.2-1.9 32.66-2.1Q33.1-2.15 33.41-2.44 33.71-2.73 33.71-3.2L33.71-3.2 33.71-20.56 30.1-20.56 30.1-22.19 36.3-24.1 38.35-24.1 38.35-19.65Q39.08-20.46 40.18-21.66 41.28-22.85 42.53-23.78 43.77-24.71 44.94-24.71L44.94-24.71Q45.73-24.71 46.63-24.46 47.53-24.22 48-23.95L48-23.95ZM59.39-32.35L59.39-32.35Q59.39-31.08 58.52-30.16 57.64-29.25 56.37-29.25L56.37-29.25Q55.1-29.25 54.18-30.16 53.27-31.08 53.27-32.35L53.27-32.35Q53.27-33.64 54.18-34.52 55.1-35.4 56.37-35.4L56.37-35.4Q57.64-35.4 58.52-34.52 59.39-33.64 59.39-32.35ZM61.96-1.95L61.96 0 50.21 0 50.21-1.95 52.66-2.1Q53.71-2.17 53.71-3.2L53.71-3.2 53.71-21.04 50.26-21.04 50.26-22.8 56.37-24.71 58.34-24.71 58.34-3.2Q58.34-2.73 58.65-2.44 58.95-2.15 59.39-2.1L59.39-2.1 61.96-1.95ZM90.57-1.95L90.57 0 82.71 0 82.71-2.66Q81-1.34 79.07-0.37 77.14 0.61 74.97 0.61L74.97 0.61Q72.45 0.61 70.63-0.45 68.82-1.51 67.66-3.27 66.5-5.03 65.93-7.15 65.37-9.28 65.37-11.4L65.37-11.4Q65.37-14.79 66.76-17.83 68.16-20.87 70.99-22.79 73.82-24.71 78.12-24.71L78.12-24.71Q79.31-24.71 80.72-24.48 82.12-24.24 82.71-24.1L82.71-24.1 82.71-33.25 78.92-33.25 78.92-34.91 85.37-36.84 87.37-36.84 87.37-3.2Q87.37-2.17 88.42-2.1L88.42-2.1 90.57-1.95ZM82.71-4.54L82.71-4.54 82.71-21.56Q82.07-21.78 80.82-22.03 79.56-22.29 78.46-22.29L78.46-22.29Q74.75-22.29 72.53-19.54 70.31-16.8 70.31-12.26L70.31-12.26Q70.31-8.18 72.21-5.49 74.11-2.81 77.56-2.81L77.56-2.81Q79.07-2.81 80.4-3.38 81.73-3.96 82.71-4.54ZM114.66-5.54L114.66-2.49Q112.56-1.2 110.13-0.29 107.7 0.61 105.17 0.61L105.17 0.61Q102.14 0.61 99.49-0.74 96.84-2.1 95.2-4.86 93.57-7.62 93.57-11.79L93.57-11.79Q93.57-15.7 95.08-18.6 96.6-21.51 99.26-23.11 101.92-24.71 105.31-24.71L105.31-24.71Q109.98-24.71 112.32-21.81 114.66-18.92 114.66-14.45L114.66-14.45Q114.66-14.21 114.66-13.81 114.66-13.4 114.61-13.06L114.61-13.06 98.4-13.06Q98.4-11.16 98.81-9.27 99.21-7.37 100.16-5.83 101.11-4.3 102.72-3.37 104.34-2.44 106.75-2.44L106.75-2.44Q108.9-2.44 110.94-3.43 112.98-4.42 114.66-5.54L114.66-5.54ZM98.67-15.31L109.66-15.31 109.66-16.41Q109.66-18.87 108.47-20.56 107.29-22.24 104.8-22.24L104.8-22.24Q102.33-22.24 100.6-20.39 98.87-18.53 98.67-15.31L98.67-15.31ZM164.36-12.01L164.36-12.01Q164.36-8.47 162.9-5.6 161.44-2.73 158.76-1.06 156.09 0.61 152.43 0.61L152.43 0.61Q148.79 0.61 146.13-1.05 143.47-2.71 142.03-5.57 140.59-8.42 140.59-12.01L140.59-12.01Q140.59-15.58 142.04-18.46 143.49-21.34 146.19-23.02 148.89-24.71 152.57-24.71L152.57-24.71Q156.31-24.71 158.94-23 161.58-21.29 162.97-18.41 164.36-15.53 164.36-12.01ZM159.16-12.06L159.16-12.06Q159.16-14.79 158.44-17.16 157.72-19.53 156.25-21 154.77-22.46 152.52-22.46L152.52-22.46Q150.2-22.46 148.73-21 147.25-19.53 146.54-17.16 145.83-14.79 145.83-12.06L145.83-12.06Q145.83-9.35 146.55-6.97 147.28-4.59 148.75-3.13 150.23-1.66 152.48-1.66L152.48-1.66Q154.77-1.66 156.25-3.13 157.72-4.59 158.44-6.96 159.16-9.33 159.16-12.06ZM185.53-33.84L185.53-33.84Q185.53-32.84 185.03-32.26 184.53-31.69 183.97-31.45 183.41-31.2 183.21-31.15L183.21-31.15Q183.14-31.23 182.44-31.71 181.75-32.2 180.88-32.81 180.01-33.42 179.34-33.9 178.67-34.38 178.62-34.4L178.62-34.4Q177.55-33.84 176.61-32.13 175.67-30.42 175.67-26.9L175.67-26.9 175.67-23.71 181.87-23.71 181.87-21.14 175.67-21.14 175.67-3.2Q175.67-2.73 175.97-2.43 176.28-2.12 176.72-2.1L176.72-2.1 179.67-1.95 179.67 0 167.51 0 167.51-1.95 169.98-2.1Q170.42-2.15 170.72-2.44 171.03-2.73 171.03-3.2L171.03-3.2 171.03-21.14 167.83-21.14 167.83-22.9 171.03-23.8Q171.03-26.27 171.41-27.89 171.78-29.52 172.71-31.3L172.71-31.3Q174.18-34.13 176.48-35.49 178.79-36.84 181.23-36.84L181.23-36.84Q183.36-36.84 184.44-35.95 185.53-35.06 185.53-33.84ZM236.79-2.15L236.79 0 228.03 0 228.03-1.54 218.73-14.89 215.24-14.89 215.24-3.44Q215.24-3.08 215.52-2.73 215.8-2.39 216.33-2.34L216.33-2.34 219.19-2.15 219.19 0 206.5 0 206.5-2.15 209.13-2.34Q209.67-2.39 209.93-2.73 210.18-3.08 210.18-3.44L210.18-3.44 210.18-30.1Q210.18-30.47 209.93-30.82 209.67-31.18 209.13-31.2L209.13-31.2 206.5-31.4 206.5-33.54 219.19-33.54 219.19-31.4 216.33-31.2Q215.8-31.18 215.52-30.82 215.24-30.47 215.24-30.1L215.24-30.1 215.24-16.99 217.04-16.99 227.93-30.3Q228.03-30.4 228.03-30.57L228.03-30.57Q228.03-31.1 227.54-31.15L227.54-31.15 224.98-31.4 224.98-33.54 235.57-33.54 235.57-31.4Q235.57-31.4 234.78-31.31 233.99-31.23 233.16-31.13 232.33-31.03 232.18-31.01L232.18-31.01 221.97-18.8 233.18-2.39 236.79-2.15ZM261.4-1.95L261.4 0 254 0 253.34-2.95Q253.34-2.95 252.6-2.42 251.85-1.88 250.63-1.17 249.41-0.46 247.94 0.07 246.46 0.61 244.99 0.61L244.99 0.61Q242.28 0.61 240.39-1.2 238.5-3 238.5-6.15L238.5-6.15Q238.5-7.54 239-8.74 239.5-9.94 241-11.02 242.5-12.11 245.47-13.15 248.44-14.18 253.34-15.26L253.34-15.26 253.34-17.41Q253.34-22.34 248.68-22.34L248.68-22.34Q247.39-22.34 246.45-22.09 245.51-21.85 245.14-21.7L245.14-21.7 245.14-17.36 241.5-17.36Q240.82-17.36 240.23-17.61 239.65-17.87 239.65-18.8L239.65-18.8Q239.65-20.85 241.21-22.16 242.77-23.46 245.18-24.08 247.58-24.71 250.05-24.71L250.05-24.71Q253.15-24.71 254.86-23.74 256.57-22.78 257.25-21.08 257.93-19.38 257.93-17.21L257.93-17.21 257.93-3.2Q257.93-2.73 258.24-2.44 258.54-2.15 258.98-2.1L258.98-2.1 261.4-1.95ZM253.34-4.71L253.34-4.71 253.34-13.35Q249.98-12.52 247.99-11.68 246-10.84 245.02-10 244.04-9.16 243.74-8.29 243.43-7.42 243.43-6.49L243.43-6.49Q243.43-4.96 244.42-3.65 245.41-2.34 247.19-2.34L247.19-2.34Q248.19-2.34 249.27-2.7 250.34-3.05 251.27-3.53 252.2-4 252.77-4.36 253.34-4.71 253.34-4.71ZM280.42-7.25L280.42-7.25Q280.42-3.56 277.88-1.48 275.34 0.61 270.87 0.61L270.87 0.61Q268.58 0.61 266.64 0.13 264.69-0.34 263.94-0.66L263.94-0.66 263.94-7.3 266.48-7.3 267.09-3.05Q267.84-2.56 268.95-2.11 270.07-1.66 271.53-1.66L271.53-1.66Q273.68-1.66 274.85-2.86 276.02-4.05 276.02-5.54L276.02-5.54Q276.02-7.52 274.61-8.53 273.19-9.55 270.58-10.79L270.58-10.79 269.92-11.11Q267.18-12.4 265.73-13.81 264.28-15.21 264.28-17.46L264.28-17.46Q264.28-20.8 266.62-22.75 268.97-24.71 273.29-24.71L273.29-24.71Q275.49-24.71 277.21-24.3 278.93-23.9 279.68-23.56L279.68-23.56 279.68-17.65 277.07-17.65 276.68-21.14Q276.14-21.56 275.09-21.92 274.04-22.29 272.87-22.29L272.87-22.29Q270.82-22.29 269.82-21.35 268.82-20.41 268.82-18.95L268.82-18.95Q268.82-17.26 270.03-16.27 271.24-15.28 274.41-13.84L274.41-13.84Q277.02-12.65 278.72-11.17 280.42-9.69 280.42-7.25ZM309.66-1.95L309.66 0 298.53 0 298.53-1.95 300.58-2.1Q301.02-2.15 301.35-2.44 301.68-2.73 301.68-3.2L301.68-3.2 301.68-16.09Q301.68-18.24 300.65-19.64 299.63-21.04 296.72-21.04L296.72-21.04Q295.4-21.04 293.88-20.63 292.35-20.21 291.28-19.6L291.28-19.6 291.28-3.2Q291.28-2.17 292.28-2.1L292.28-2.1 294.43-1.95 294.43 0 283.17 0 283.17-1.95 285.57-2.1Q286.62-2.17 286.62-3.2L286.62-3.2 286.62-33.25 282.88-33.25 282.88-34.91 289.28-36.84 291.28-36.84 291.28-21.61Q292.18-22.17 293.62-22.89 295.06-23.61 296.65-24.16 298.24-24.71 299.53-24.71L299.53-24.71Q302.41-24.71 304.36-22.85 306.32-21 306.32-17.14L306.32-17.14 306.32-3.2Q306.32-2.73 306.65-2.44 306.98-2.15 307.42-2.1L307.42-2.1 309.66-1.95ZM352.24-1.95L352.24 0 341.03 0 341.03-1.95 343.13-2.1Q344.18-2.17 344.18-3.2L344.18-3.2 344.18-15.94Q344.18-18.26 343.22-19.65 342.25-21.04 339.74-21.04L339.74-21.04Q338.49-21.04 337.02-20.65 335.54-20.26 334.39-19.65L334.39-19.65 334.39-3.2Q334.39-2.17 335.44-2.1L335.44-2.1 337.54-1.95 337.54 0 326.58 0 326.58-1.95 328.68-2.1Q329.73-2.17 329.73-3.2L329.73-3.2 329.73-16.26Q329.73-18.38 328.73-19.71 327.73-21.04 325.33-21.04L325.33-21.04Q323.92-21.04 322.38-20.57 320.84-20.09 319.99-19.6L319.99-19.6 319.99-3.2Q319.99-2.17 321.04-2.1L321.04-2.1 323.14-1.95 323.14 0 311.83 0 311.83-1.95 314.27-2.1Q315.32-2.17 315.32-3.2L315.32-3.2 315.32-20.56 311.88-20.56 311.88-22.19 317.94-24.1 319.99-24.1 319.99-21.61Q321.11-22.29 322.51-23 323.92-23.71 325.38-24.21 326.85-24.71 328.14-24.71L328.14-24.71Q330.31-24.71 331.66-23.6 333-22.49 333.63-21.24L333.63-21.24Q334.64-21.88 336.17-22.69 337.71-23.51 339.36-24.11 341.01-24.71 342.33-24.71L342.33-24.71Q344.96-24.71 346.35-23.5 347.75-22.29 348.26-20.52 348.77-18.75 348.77-17.04L348.77-17.04 348.77-3.2Q348.77-2.73 349.08-2.44 349.38-2.15 349.82-2.1L349.82-2.1 352.24-1.95ZM364.22-32.35L364.22-32.35Q364.22-31.08 363.34-30.16 362.47-29.25 361.2-29.25L361.2-29.25Q359.93-29.25 359.01-30.16 358.09-31.08 358.09-32.35L358.09-32.35Q358.09-33.64 359.01-34.52 359.93-35.4 361.2-35.4L361.2-35.4Q362.47-35.4 363.34-34.52 364.22-33.64 364.22-32.35ZM366.79-1.95L366.79 0 355.04 0 355.04-1.95 357.48-2.1Q358.53-2.17 358.53-3.2L358.53-3.2 358.53-21.04 355.09-21.04 355.09-22.8 361.2-24.71 363.17-24.71 363.17-3.2Q363.17-2.73 363.48-2.44 363.78-2.15 364.22-2.1L364.22-2.1 366.79-1.95ZM387.54-23.95L387.54-18.99 385.58-18.99Q385.12-19.56 384.47-19.96 383.82-20.36 382.9-20.36L382.9-20.36Q381.7-20.36 380.44-19.53 379.19-18.7 377.89-17.26L377.89-17.26 377.89-3.2Q377.89-2.15 378.94-2.1L378.94-2.1 382.24-1.95 382.24 0 369.74 0 369.74-1.9 372.2-2.1Q372.64-2.15 372.95-2.44 373.25-2.73 373.25-3.2L373.25-3.2 373.25-20.56 369.64-20.56 369.64-22.19 375.84-24.1 377.89-24.1 377.89-19.65Q378.62-20.46 379.72-21.66 380.82-22.85 382.07-23.78 383.31-24.71 384.48-24.71L384.48-24.71Q385.27-24.71 386.17-24.46 387.07-24.22 387.54-23.95L387.54-23.95Z" opacity="1" transform="matrix(1,0,0,1,0,0)" fill="black" class="slogan-text-1" id="SvgjsPath1877" stroke-width="1" stroke="black" stroke-linejoin="round"></path></svg></g></svg></g></svg></g></svg></g><g></g></svg></g></svg></g></svg></g></mask><g transform="matrix(1,0,0,1,39.55199999999999,101.06481973444978)"><svg viewBox="0 0 316.416 45.07036053110042" height="45.07036053110042" width="316.416"><g><svg viewBox="0 0 316.416 45.07036053110042" height="45.07036053110042" width="316.416"><g><svg viewBox="0 0 316.416 45.07036053110042" height="45.07036053110042" width="316.416"><g><svg viewBox="0 0 316.416 45.07036053110042" height="45.07036053110042" width="316.416"><g id="textblocktransform"><svg viewBox="0 0 316.416 45.07036053110042" height="45.07036053110042" width="316.416" id="textblock"><g><svg viewBox="0 0 316.416 24.652401697312584" height="24.652401697312584" width="316.416"><g transform="matrix(1,0,0,1,0,0)"><svg width="316.416" viewBox="-0.19999999999999996 -32.55 425.15999999999997 34.050000000000004" height="24.652401697312584" data-palette-color="#fbfbfb"><path d="M3.8-31.05L12.2-31.05 12.2-6.25Q12.2-2.4 10.45-0.95 8.7 0.5 4 0.5L4 0.5 1.45 0.5 0.8-6.3 2.5-6.3Q3.35-6.3 3.58-6.53 3.8-6.75 3.8-7.5L3.8-7.5 3.8-31.05ZM33.2-31.05L38.9 0 30.55 0 29.6-4.9 23.7-4.9 22.75 0 14.8 0 20.5-31.05 33.2-31.05ZM24.8-10.75L28.65-10.75 26.9-21.85 26.55-21.85 24.8-10.75ZM64.45-31.05L64.45 0 55.95 0 55.95-11.75 50.09-11.75 50.09 0 41.5 0 41.5-31.05 50.09-31.05 50.09-18.85 55.95-18.85 55.95-31.05 64.45-31.05ZM85.24-31.05L90.94 0 82.59 0 81.64-4.9 75.74-4.9 74.79 0 66.84 0 72.54-31.05 85.24-31.05ZM76.84-10.75L80.69-10.75 78.94-21.85 78.59-21.85 76.84-10.75ZM116.19-31.05L116.19 0 107.99 0 101.54-14.45 101.14-14.45 101.14 0 93.54 0 93.54-31.05 101.99-31.05 108.14-16.15 108.54-16.15 108.54-31.05 116.19-31.05ZM140.64-29.95L139.29-21.8Q134.49-23.25 132.26-23.25 130.04-23.25 129.21-21.3 128.39-19.35 128.39-15.13 128.39-10.9 129.16-8.97 129.94-7.05 132.34-7.05L132.34-7.05Q133.04-7.05 135.04-7.45L135.04-7.45 135.04-11.25 132.79-11.25 132.79-17.15 142.34-17.15 142.34 0 136.44 0 135.64-1.6 135.44-1.6Q134.59-0.9 134.09-0.55L134.09-0.55Q132.69 0.5 130.14 0.5L130.14 0.5Q119.69 0.5 119.69-15.3L119.69-15.3Q119.69-23.2 122.44-27.38 125.19-31.55 131.69-31.55L131.69-31.55Q136.89-31.55 140.64-29.95L140.64-29.95ZM155.54-31.05L155.54 0 147.04 0 147.04-31.05 155.54-31.05ZM181.68-21.2L181.68-21.2Q181.68-18.4 180.83-16.55 179.98-14.7 178.18-13.2L178.18-13.2 182.33 0 173.08 0 169.98-11.2 168.83-11.2 168.83 0 160.43 0 160.43-31.05 172.03-31.05Q177.03-31.05 179.36-28.7 181.68-26.35 181.68-21.2ZM170.13-16.45Q171.43-16.45 171.98-17.2 172.53-17.95 172.53-19.93 172.53-21.9 171.98-22.68 171.43-23.45 170.18-23.45L170.18-23.45 168.83-23.45 168.83-16.45 170.13-16.45ZM218.58-31.05L218.58 0 210.08 0 210.08-11.75 204.23-11.75 204.23 0 195.63 0 195.63-31.05 204.23-31.05 204.23-18.85 210.08-18.85 210.08-31.05 218.58-31.05ZM224.65-27.8Q227.53-31.55 234.08-31.55 240.63-31.55 243.45-27.85 246.28-24.15 246.28-15.83 246.28-7.5 243.38-3.5 240.48 0.5 233.98 0.5 227.48 0.5 224.63-3.45 221.78-7.4 221.78-15.73 221.78-24.05 224.65-27.8ZM237.68-15.8Q237.68-20.4 236.95-22.03 236.23-23.65 234-23.65 231.78-23.65 231.13-22.03 230.48-20.4 230.48-15.85L230.48-15.85 230.48-14.65Q230.48-9.8 231.2-8.28 231.93-6.75 234.15-6.75 236.38-6.75 237.03-8.2 237.68-9.65 237.68-14.2L237.68-14.2 237.68-15.8ZM258.42-10.2Q258.42-8.65 259.07-7.9 259.72-7.15 261.2-7.15 262.67-7.15 263.25-7.88 263.82-8.6 263.82-10.25L263.82-10.25 263.82-31.05 272.42-31.05 272.42-9.75Q272.42-4.4 269.5-1.95 266.57 0.5 260.9 0.5 255.22 0.5 252.45-1.93 249.67-4.35 249.67-9.65L249.67-9.65 249.67-31.05 258.42-31.05 258.42-10.2ZM275.42-21.7Q275.42-26.15 278.02-28.85 280.62-31.55 285.15-31.55 289.67-31.55 294.42-30.65L294.42-30.65 293.42-22.65Q288.47-23.8 286.62-23.8L286.62-23.8Q284.27-23.8 284.27-21.9L284.27-21.9Q284.27-21.15 285.4-20.45 286.52-19.75 288.12-18.98 289.72-18.2 291.32-17.13 292.92-16.05 294.05-14.05 295.17-12.05 295.17-9.45L295.17-9.45Q295.17-4.7 292.62-2.1 290.07 0.5 285.4 0.5 280.72 0.5 276.27-0.95L276.27-0.95 276.82-8.4Q282.17-6.85 284.27-6.85 286.37-6.85 286.37-8.7L286.37-8.7Q286.37-9.65 285.25-10.45 284.12-11.25 282.52-12.05 280.92-12.85 279.3-13.9 277.67-14.95 276.55-16.95 275.42-18.95 275.42-21.7L275.42-21.7ZM315.47-7L314.97 0 298.17 0 298.17-31.05 315.47-31.05 314.97-23.4 306.72-23.4 306.72-18.75 313.87-18.75 313.87-12.15 306.72-12.15 306.72-7 315.47-7ZM350.71-8.95L350.71-8.95Q350.71 0 341.11 0L341.11 0 328.86 0 328.86-31.05 340.86-31.05Q345.61-31.05 347.91-29.13 350.21-27.2 350.21-23 350.21-18.8 346.76-16.6L346.76-16.6 346.76-16.3Q350.71-14.75 350.71-8.95ZM339.11-5.55Q340.61-5.55 341.14-6.23 341.66-6.9 341.66-9.03 341.66-11.15 341.11-12.03 340.56-12.9 339.11-12.9L339.11-12.9 337.51-12.9 337.51-5.55 339.11-5.55ZM339.16-17.75Q340.31-17.75 340.76-18.45 341.21-19.15 341.21-20.93 341.21-22.7 340.74-23.43 340.26-24.15 339.11-24.15L339.11-24.15 337.51-24.15 337.51-17.75 339.16-17.75ZM355.49-27.8Q358.36-31.55 364.91-31.55 371.46-31.55 374.29-27.85 377.11-24.15 377.11-15.83 377.11-7.5 374.21-3.5 371.31 0.5 364.81 0.5 358.31 0.5 355.46-3.45 352.61-7.4 352.61-15.73 352.61-24.05 355.49-27.8ZM368.51-15.8Q368.51-20.4 367.79-22.03 367.06-23.65 364.84-23.65 362.61-23.65 361.96-22.03 361.31-20.4 361.31-15.85L361.31-15.85 361.31-14.65Q361.31-9.8 362.04-8.28 362.76-6.75 364.99-6.75 367.21-6.75 367.86-8.2 368.51-9.65 368.51-14.2L368.51-14.2 368.51-15.8ZM397.11-31.05L402.81 0 394.46 0 393.51-4.9 387.61-4.9 386.66 0 378.71 0 384.41-31.05 397.11-31.05ZM388.71-10.75L392.56-10.75 390.81-21.85 390.46-21.85 388.71-10.75ZM423.96-31.05L423.46-23.5 417.66-23.5 417.66 0 409.11 0 409.11-23.5 402.96-23.5 403.46-31.05 423.96-31.05Z" opacity="1" transform="matrix(1,0,0,1,0,0)" fill="#000000" class="wordmark-text-0" data-fill-palette-color="primary" id="text-0"></path></svg></g></svg></g><g transform="matrix(1,0,0,1,83.795869619639,30.296150086970293)"><svg viewBox="0 0 148.82426076072198 14.774210444130127" height="14.774210444130127" width="148.82426076072198"><g transform="matrix(1,0,0,1,0,0)"><svg width="148.82426076072198" viewBox="0.25 -37.84 388.29 39.45" height="14.774210444130127" data-palette-color="#fbfbfb"><path d="M27-23.46L27-23.46Q27-19.8 25.27-17.38 23.54-14.97 20.61-13.76 17.68-12.55 14.09-12.55L14.09-12.55 13.94-12.55Q12.96-12.55 11.78-12.63 10.6-12.72 10.4-12.74L10.4-12.74 10.4-3.44Q10.4-3.08 10.66-2.73 10.91-2.39 11.45-2.34L11.45-2.34 14.75-2.15 14.75 0 1.61 0 1.61-2.15 4.25-2.34Q4.79-2.39 5.07-2.73 5.35-3.08 5.35-3.44L5.35-3.44 5.35-30.1Q5.35-30.47 5.07-30.82 4.79-31.18 4.25-31.2L4.25-31.2 1.25-31.4 1.25-33.54 13.21-33.54Q20.29-33.54 23.65-31.27 27-29 27-23.46ZM21.8-23.39L21.8-23.39Q21.8-27.03 19.76-29.06 17.72-31.1 12.94-31.1L12.94-31.1Q12.26-31.1 11.33-31.08 10.4-31.05 10.4-31.05L10.4-31.05 10.4-15.31Q10.52-15.31 11.51-15.17 12.5-15.04 13.21-15.04L13.21-15.04 13.35-15.04Q17.24-15.04 19.52-17.07 21.8-19.09 21.8-23.39ZM48-23.95L48-18.99 46.04-18.99Q45.58-19.56 44.93-19.96 44.28-20.36 43.36-20.36L43.36-20.36Q42.16-20.36 40.9-19.53 39.65-18.7 38.35-17.26L38.35-17.26 38.35-3.2Q38.35-2.15 39.4-2.1L39.4-2.1 42.7-1.95 42.7 0 30.2 0 30.2-1.9 32.66-2.1Q33.1-2.15 33.41-2.44 33.71-2.73 33.71-3.2L33.71-3.2 33.71-20.56 30.1-20.56 30.1-22.19 36.3-24.1 38.35-24.1 38.35-19.65Q39.08-20.46 40.18-21.66 41.28-22.85 42.53-23.78 43.77-24.71 44.94-24.71L44.94-24.71Q45.73-24.71 46.63-24.46 47.53-24.22 48-23.95L48-23.95ZM59.39-32.35L59.39-32.35Q59.39-31.08 58.52-30.16 57.64-29.25 56.37-29.25L56.37-29.25Q55.1-29.25 54.18-30.16 53.27-31.08 53.27-32.35L53.27-32.35Q53.27-33.64 54.18-34.52 55.1-35.4 56.37-35.4L56.37-35.4Q57.64-35.4 58.52-34.52 59.39-33.64 59.39-32.35ZM61.96-1.95L61.96 0 50.21 0 50.21-1.95 52.66-2.1Q53.71-2.17 53.71-3.2L53.71-3.2 53.71-21.04 50.26-21.04 50.26-22.8 56.37-24.71 58.34-24.71 58.34-3.2Q58.34-2.73 58.65-2.44 58.95-2.15 59.39-2.1L59.39-2.1 61.96-1.95ZM90.57-1.95L90.57 0 82.71 0 82.71-2.66Q81-1.34 79.07-0.37 77.14 0.61 74.97 0.61L74.97 0.61Q72.45 0.61 70.63-0.45 68.82-1.51 67.66-3.27 66.5-5.03 65.93-7.15 65.37-9.28 65.37-11.4L65.37-11.4Q65.37-14.79 66.76-17.83 68.16-20.87 70.99-22.79 73.82-24.71 78.12-24.71L78.12-24.71Q79.31-24.71 80.72-24.48 82.12-24.24 82.71-24.1L82.71-24.1 82.71-33.25 78.92-33.25 78.92-34.91 85.37-36.84 87.37-36.84 87.37-3.2Q87.37-2.17 88.42-2.1L88.42-2.1 90.57-1.95ZM82.71-4.54L82.71-4.54 82.71-21.56Q82.07-21.78 80.82-22.03 79.56-22.29 78.46-22.29L78.46-22.29Q74.75-22.29 72.53-19.54 70.31-16.8 70.31-12.26L70.31-12.26Q70.31-8.18 72.21-5.49 74.11-2.81 77.56-2.81L77.56-2.81Q79.07-2.81 80.4-3.38 81.73-3.96 82.71-4.54ZM114.66-5.54L114.66-2.49Q112.56-1.2 110.13-0.29 107.7 0.61 105.17 0.61L105.17 0.61Q102.14 0.61 99.49-0.74 96.84-2.1 95.2-4.86 93.57-7.62 93.57-11.79L93.57-11.79Q93.57-15.7 95.08-18.6 96.6-21.51 99.26-23.11 101.92-24.71 105.31-24.71L105.31-24.71Q109.98-24.71 112.32-21.81 114.66-18.92 114.66-14.45L114.66-14.45Q114.66-14.21 114.66-13.81 114.66-13.4 114.61-13.06L114.61-13.06 98.4-13.06Q98.4-11.16 98.81-9.27 99.21-7.37 100.16-5.83 101.11-4.3 102.72-3.37 104.34-2.44 106.75-2.44L106.75-2.44Q108.9-2.44 110.94-3.43 112.98-4.42 114.66-5.54L114.66-5.54ZM98.67-15.31L109.66-15.31 109.66-16.41Q109.66-18.87 108.47-20.56 107.29-22.24 104.8-22.24L104.8-22.24Q102.33-22.24 100.6-20.39 98.87-18.53 98.67-15.31L98.67-15.31ZM164.36-12.01L164.36-12.01Q164.36-8.47 162.9-5.6 161.44-2.73 158.76-1.06 156.09 0.61 152.43 0.61L152.43 0.61Q148.79 0.61 146.13-1.05 143.47-2.71 142.03-5.57 140.59-8.42 140.59-12.01L140.59-12.01Q140.59-15.58 142.04-18.46 143.49-21.34 146.19-23.02 148.89-24.71 152.57-24.71L152.57-24.71Q156.31-24.71 158.94-23 161.58-21.29 162.97-18.41 164.36-15.53 164.36-12.01ZM159.16-12.06L159.16-12.06Q159.16-14.79 158.44-17.16 157.72-19.53 156.25-21 154.77-22.46 152.52-22.46L152.52-22.46Q150.2-22.46 148.73-21 147.25-19.53 146.54-17.16 145.83-14.79 145.83-12.06L145.83-12.06Q145.83-9.35 146.55-6.97 147.28-4.59 148.75-3.13 150.23-1.66 152.48-1.66L152.48-1.66Q154.77-1.66 156.25-3.13 157.72-4.59 158.44-6.96 159.16-9.33 159.16-12.06ZM185.53-33.84L185.53-33.84Q185.53-32.84 185.03-32.26 184.53-31.69 183.97-31.45 183.41-31.2 183.21-31.15L183.21-31.15Q183.14-31.23 182.44-31.71 181.75-32.2 180.88-32.81 180.01-33.42 179.34-33.9 178.67-34.38 178.62-34.4L178.62-34.4Q177.55-33.84 176.61-32.13 175.67-30.42 175.67-26.9L175.67-26.9 175.67-23.71 181.87-23.71 181.87-21.14 175.67-21.14 175.67-3.2Q175.67-2.73 175.97-2.43 176.28-2.12 176.72-2.1L176.72-2.1 179.67-1.95 179.67 0 167.51 0 167.51-1.95 169.98-2.1Q170.42-2.15 170.72-2.44 171.03-2.73 171.03-3.2L171.03-3.2 171.03-21.14 167.83-21.14 167.83-22.9 171.03-23.8Q171.03-26.27 171.41-27.89 171.78-29.52 172.71-31.3L172.71-31.3Q174.18-34.13 176.48-35.49 178.79-36.84 181.23-36.84L181.23-36.84Q183.36-36.84 184.44-35.95 185.53-35.06 185.53-33.84ZM236.79-2.15L236.79 0 228.03 0 228.03-1.54 218.73-14.89 215.24-14.89 215.24-3.44Q215.24-3.08 215.52-2.73 215.8-2.39 216.33-2.34L216.33-2.34 219.19-2.15 219.19 0 206.5 0 206.5-2.15 209.13-2.34Q209.67-2.39 209.93-2.73 210.18-3.08 210.18-3.44L210.18-3.44 210.18-30.1Q210.18-30.47 209.93-30.82 209.67-31.18 209.13-31.2L209.13-31.2 206.5-31.4 206.5-33.54 219.19-33.54 219.19-31.4 216.33-31.2Q215.8-31.18 215.52-30.82 215.24-30.47 215.24-30.1L215.24-30.1 215.24-16.99 217.04-16.99 227.93-30.3Q228.03-30.4 228.03-30.57L228.03-30.57Q228.03-31.1 227.54-31.15L227.54-31.15 224.98-31.4 224.98-33.54 235.57-33.54 235.57-31.4Q235.57-31.4 234.78-31.31 233.99-31.23 233.16-31.13 232.33-31.03 232.18-31.01L232.18-31.01 221.97-18.8 233.18-2.39 236.79-2.15ZM261.4-1.95L261.4 0 254 0 253.34-2.95Q253.34-2.95 252.6-2.42 251.85-1.88 250.63-1.17 249.41-0.46 247.94 0.07 246.46 0.61 244.99 0.61L244.99 0.61Q242.28 0.61 240.39-1.2 238.5-3 238.5-6.15L238.5-6.15Q238.5-7.54 239-8.74 239.5-9.94 241-11.02 242.5-12.11 245.47-13.15 248.44-14.18 253.34-15.26L253.34-15.26 253.34-17.41Q253.34-22.34 248.68-22.34L248.68-22.34Q247.39-22.34 246.45-22.09 245.51-21.85 245.14-21.7L245.14-21.7 245.14-17.36 241.5-17.36Q240.82-17.36 240.23-17.61 239.65-17.87 239.65-18.8L239.65-18.8Q239.65-20.85 241.21-22.16 242.77-23.46 245.18-24.08 247.58-24.71 250.05-24.71L250.05-24.71Q253.15-24.71 254.86-23.74 256.57-22.78 257.25-21.08 257.93-19.38 257.93-17.21L257.93-17.21 257.93-3.2Q257.93-2.73 258.24-2.44 258.54-2.15 258.98-2.1L258.98-2.1 261.4-1.95ZM253.34-4.71L253.34-4.71 253.34-13.35Q249.98-12.52 247.99-11.68 246-10.84 245.02-10 244.04-9.16 243.74-8.29 243.43-7.42 243.43-6.49L243.43-6.49Q243.43-4.96 244.42-3.65 245.41-2.34 247.19-2.34L247.19-2.34Q248.19-2.34 249.27-2.7 250.34-3.05 251.27-3.53 252.2-4 252.77-4.36 253.34-4.71 253.34-4.71ZM280.42-7.25L280.42-7.25Q280.42-3.56 277.88-1.48 275.34 0.61 270.87 0.61L270.87 0.61Q268.58 0.61 266.64 0.13 264.69-0.34 263.94-0.66L263.94-0.66 263.94-7.3 266.48-7.3 267.09-3.05Q267.84-2.56 268.95-2.11 270.07-1.66 271.53-1.66L271.53-1.66Q273.68-1.66 274.85-2.86 276.02-4.05 276.02-5.54L276.02-5.54Q276.02-7.52 274.61-8.53 273.19-9.55 270.58-10.79L270.58-10.79 269.92-11.11Q267.18-12.4 265.73-13.81 264.28-15.21 264.28-17.46L264.28-17.46Q264.28-20.8 266.62-22.75 268.97-24.71 273.29-24.71L273.29-24.71Q275.49-24.71 277.21-24.3 278.93-23.9 279.68-23.56L279.68-23.56 279.68-17.65 277.07-17.65 276.68-21.14Q276.14-21.56 275.09-21.92 274.04-22.29 272.87-22.29L272.87-22.29Q270.82-22.29 269.82-21.35 268.82-20.41 268.82-18.95L268.82-18.95Q268.82-17.26 270.03-16.27 271.24-15.28 274.41-13.84L274.41-13.84Q277.02-12.65 278.72-11.17 280.42-9.69 280.42-7.25ZM309.66-1.95L309.66 0 298.53 0 298.53-1.95 300.58-2.1Q301.02-2.15 301.35-2.44 301.68-2.73 301.68-3.2L301.68-3.2 301.68-16.09Q301.68-18.24 300.65-19.64 299.63-21.04 296.72-21.04L296.72-21.04Q295.4-21.04 293.88-20.63 292.35-20.21 291.28-19.6L291.28-19.6 291.28-3.2Q291.28-2.17 292.28-2.1L292.28-2.1 294.43-1.95 294.43 0 283.17 0 283.17-1.95 285.57-2.1Q286.62-2.17 286.62-3.2L286.62-3.2 286.62-33.25 282.88-33.25 282.88-34.91 289.28-36.84 291.28-36.84 291.28-21.61Q292.18-22.17 293.62-22.89 295.06-23.61 296.65-24.16 298.24-24.71 299.53-24.71L299.53-24.71Q302.41-24.71 304.36-22.85 306.32-21 306.32-17.14L306.32-17.14 306.32-3.2Q306.32-2.73 306.65-2.44 306.98-2.15 307.42-2.1L307.42-2.1 309.66-1.95ZM352.24-1.95L352.24 0 341.03 0 341.03-1.95 343.13-2.1Q344.18-2.17 344.18-3.2L344.18-3.2 344.18-15.94Q344.18-18.26 343.22-19.65 342.25-21.04 339.74-21.04L339.74-21.04Q338.49-21.04 337.02-20.65 335.54-20.26 334.39-19.65L334.39-19.65 334.39-3.2Q334.39-2.17 335.44-2.1L335.44-2.1 337.54-1.95 337.54 0 326.58 0 326.58-1.95 328.68-2.1Q329.73-2.17 329.73-3.2L329.73-3.2 329.73-16.26Q329.73-18.38 328.73-19.71 327.73-21.04 325.33-21.04L325.33-21.04Q323.92-21.04 322.38-20.57 320.84-20.09 319.99-19.6L319.99-19.6 319.99-3.2Q319.99-2.17 321.04-2.1L321.04-2.1 323.14-1.95 323.14 0 311.83 0 311.83-1.95 314.27-2.1Q315.32-2.17 315.32-3.2L315.32-3.2 315.32-20.56 311.88-20.56 311.88-22.19 317.94-24.1 319.99-24.1 319.99-21.61Q321.11-22.29 322.51-23 323.92-23.71 325.38-24.21 326.85-24.71 328.14-24.71L328.14-24.71Q330.31-24.71 331.66-23.6 333-22.49 333.63-21.24L333.63-21.24Q334.64-21.88 336.17-22.69 337.71-23.51 339.36-24.11 341.01-24.71 342.33-24.71L342.33-24.71Q344.96-24.71 346.35-23.5 347.75-22.29 348.26-20.52 348.77-18.75 348.77-17.04L348.77-17.04 348.77-3.2Q348.77-2.73 349.08-2.44 349.38-2.15 349.82-2.1L349.82-2.1 352.24-1.95ZM364.22-32.35L364.22-32.35Q364.22-31.08 363.34-30.16 362.47-29.25 361.2-29.25L361.2-29.25Q359.93-29.25 359.01-30.16 358.09-31.08 358.09-32.35L358.09-32.35Q358.09-33.64 359.01-34.52 359.93-35.4 361.2-35.4L361.2-35.4Q362.47-35.4 363.34-34.52 364.22-33.64 364.22-32.35ZM366.79-1.95L366.79 0 355.04 0 355.04-1.95 357.48-2.1Q358.53-2.17 358.53-3.2L358.53-3.2 358.53-21.04 355.09-21.04 355.09-22.8 361.2-24.71 363.17-24.71 363.17-3.2Q363.17-2.73 363.48-2.44 363.78-2.15 364.22-2.1L364.22-2.1 366.79-1.95ZM387.54-23.95L387.54-18.99 385.58-18.99Q385.12-19.56 384.47-19.96 383.82-20.36 382.9-20.36L382.9-20.36Q381.7-20.36 380.44-19.53 379.19-18.7 377.89-17.26L377.89-17.26 377.89-3.2Q377.89-2.15 378.94-2.1L378.94-2.1 382.24-1.95 382.24 0 369.74 0 369.74-1.9 372.2-2.1Q372.64-2.15 372.95-2.44 373.25-2.73 373.25-3.2L373.25-3.2 373.25-20.56 369.64-20.56 369.64-22.19 375.84-24.1 377.89-24.1 377.89-19.65Q378.62-20.46 379.72-21.66 380.82-22.85 382.07-23.78 383.31-24.71 384.48-24.71L384.48-24.71Q385.27-24.71 386.17-24.46 387.07-24.22 387.54-23.95L387.54-23.95Z" opacity="1" transform="matrix(1,0,0,1,0,0)" fill="#000000" class="slogan-text-1" data-fill-palette-color="secondary" id="text-1"></path></svg></g></svg></g></svg></g></svg></g><g></g></svg></g></svg></g></svg></g><g mask="url(#eacbd7bc-374a-43d9-9e55-fcf73d985aca)"><g transform="matrix(2.7461802690412873, 0, 0, 2.7461802690412873, 75.16603184765192, 1)"><svg xmlns="http://www.w3.org/2000/svg" xmlns:xlink="http://www.w3.org/1999/xlink" version="1.1" x="0" y="0" viewBox="0.35833249999999595 0.3587183000000067 89.28326340000001 89.2876563" enable-background="new 0 0 90 90" xml:space="preserve" height="89.2876563" width="89.28326340000001" class="icon-none" data-fill-palette-color="accent" id="none"><polygon points="57.928,58.169 57.875,76.027 45.397,63.548 45.397,45.639 " fill="#000000" data-fill-palette-color="accent"></polygon><polygon points="76.027,57.875 58.475,57.927 45.826,45.279 63.432,45.279 " fill="#000000" data-fill-palette-color="accent"></polygon><polygon points="76.027,32.125 63.432,44.721 45.707,44.721 58.355,32.073 " fill="#000000" data-fill-palette-color="accent"></polygon><polygon points="44.838,45.59 44.838,63.314 32.125,76.027 32.074,58.355 " fill="#000000" data-fill-palette-color="accent"></polygon><polygon points="57.928,31.712 45.397,44.243 45.397,26.452 57.875,13.974 " fill="#000000" data-fill-palette-color="accent"></polygon><polygon points="44.838,26.687 44.838,44.291 32.074,31.526 32.125,13.974 " fill="#000000" data-fill-palette-color="accent"></polygon><polygon points="44.479,44.721 26.569,44.721 13.974,32.125 31.832,32.073 " fill="#000000" data-fill-palette-color="accent"></polygon><polygon points="44.36,45.279 31.712,57.927 13.974,57.875 26.569,45.279 " fill="#000000" data-fill-palette-color="accent"></polygon><rect x="58.48" y="58.48" width="18.049" height="18.049" fill="#000000" data-fill-palette-color="accent"></rect><polygon points="76.527,13.474 76.527,31.516 58.914,31.516 58.912,31.518 58.484,31.516 58.484,13.474 " fill="#000000" data-fill-palette-color="accent"></polygon><polygon points="31.518,30.971 31.516,31.516 13.474,31.516 13.474,13.474 31.516,13.474 31.516,30.968 " fill="#000000" data-fill-palette-color="accent"></polygon><rect x="13.471" y="58.48" width="18.05" height="18.049" fill="#000000" data-fill-palette-color="accent"></rect><rect x="67.864" y="35.981" transform="matrix(0.7071 -0.7071 0.7071 0.7071 -9.3022 67.5465)" width="18.042" height="18.042" fill="#000000" data-fill-palette-color="accent"></rect><rect x="35.979" y="4.094" transform="matrix(0.7071 -0.7071 0.7071 0.7071 3.9068 35.6621)" width="18.042" height="18.042" fill="#000000" data-fill-palette-color="accent"></rect><rect x="4.095" y="35.98" transform="matrix(0.7071 -0.7071 0.7071 0.7071 -27.9787 22.4536)" width="18.041" height="18.041" fill="#000000" data-fill-palette-color="accent"></rect><rect x="35.98" y="67.865" transform="matrix(0.7071 -0.7071 0.7071 0.7071 -41.1877 54.3437)" width="18.04" height="18.041" fill="#000000" data-fill-palette-color="accent"></rect></svg></g></g></svg></g><defs></defs></svg><rect width="395.52" height="247.2" fill="none" stroke="none" visibility="hidden"></rect></g></svg></g></svg>