<svg xmlns="http://www.w3.org/2000/svg" version="1.1" xmlns:xlink="http://www.w3.org/1999/xlink" xmlns:svgjs="http://svgjs.dev/svgjs" width="1500" height="1500" viewBox="0 0 1500 1500"><rect width="1500" height="1500" fill="#e0e7e8"></rect><g transform="matrix(0.6666666666666666,0,0,0.6666666666666666,250.00007343750008,187.66666666666674)"><svg viewBox="0 0 320 360" data-background-color="#e0e7e8" preserveAspectRatio="xMidYMid meet" height="1687" width="1500" xmlns="http://www.w3.org/2000/svg" xmlns:xlink="http://www.w3.org/1999/xlink"><g id="tight-bounds" transform="matrix(1,0,0,1,0.000023499999997511622,0)"><svg viewBox="0 0 320 360" height="360" width="320"><g><svg></svg></g><g><svg viewBox="0 0 320 360" height="360" width="320"><g><path transform="translate(-74.99272,-51.79039) scale(4.65793,4.65793)" d="M20.6 59.9l0.8 1-0.4-1.3c-0.1-0.6-0.8 0.1-0.4 0.3M21.5 59.3c0.3 0.5 0.6 1 0.6 1.5 0 0.7 0.6 1 1.1 1.2-0.7-0.8-1.1-3-1.7-2.7M59.9 16.9c1.7 0 3.3-0.2 5.1 0.2 4.4 1.1 8.1 3.3 10.6 6.4l7 11.2c0.3 2.8 0.9 5.9 0.8 9.3 0.7 0 0.6-1 1.4-1.2-0.8 2-1.2 4.5-1.4 7.4-0.5-1.6 0-4 0.1-5.3-0.7 1.1-1.1 0.3-1.1-0.2 0.1-0.8-0.3-0.7-0.6-1-1.1-1-1.8-2.1-2.6-3.8 0.5-1.3 0.6-3.2-1-4.2-0.5-0.3-1.1-0.8-1.4-1.6-0.4-1.1-1.1-2.4-0.9-4.1 0.1-0.5-1.5 1.1-2.4 0.4-3.9-2.7-7.8-5.8-12.5-8.4-2.5 0-4.3-0.9-5.2-2-0.8-1-0.2-2.3 1-2.4 0.7 0 1.5-0.2 2.1 0.2 0.1-0.4 0.5-0.9 1-0.9M50 14.6l0.2 0.1c1 0.2 1.5 1.6 2.6 1.1 0 0.7 0.1 1.4-0.1 1.9-0.3 0.8-1.2 0.8-1.9 0.8-6.7-0.4-10.6 2.4-14.7 4.8-1.1 0.7-2.3 1.2-3.2 2.1-4.3 4-9 7.7-10.1 15.1l-0.9 8.2c-0.1 0.9-1.1 1.8-0.9 2.9l0.7 4.9c-0.7-0.7-1.1 0.2-0.9 0.6 0.1 0.3 0.5 1.3 1.1 0.4 0.8 1.5 1.6 4.4 2.7 5.7 3.4 4 7.8 7.6 11.4 11.2 0.9-0.2 1.6-0.2 1.8-0.8 0.3 0.6-0.3 1.2-0.8 1.3 1.6 1 3.4 1.9 5.8 2.1 3.1 0.2 6 0.7 8.7 1.4 1.4-0.4 2.8-0.6 4.3-0.7 0.5 0 0.8-0.8 1.4-1l0.1-1c0.6 0.9 0.5-0.3 0.1-0.9 0.7 0.6 0.9 1.1 1.2 1.5 0-0.3 0.8-1.4 0.8-0.1l0.2-1.3c0.3-0.2 0.4 1.1 0.7 0.2 0.3-0.9 0.9-0.2 1.5-0.5-0.2 0.4-0.1 1.2 0.6 0.7l0.8-0.7c0.5 1.2 1.3 0.7 1.7 0.5 4.4-2.8 8.8-6.1 13-9.4l-0.1 1.3 0.5-1.6c0.5 0.5 0.9 0.1 1.1-0.2 0.6-1 1.4-2 2.7-2.9-1.6 4.3-3.5 7.7-5.9 10.5l-1 1.2c0 0.7-0.2 1.6-1 1.7-0.4 0.1-1.2-0.2-1.8 0.4-0.3 0.4 0.7 1.2-0.1 0.6-0.7-0.5-1.4 0-2.2 0.2-0.6 0.2 0.4 0.8 0.6 1.2 0.2 0.4 0.4 0.8 0.3 1.3l-1.1-1.2c-1.3 0.7-2.1 2-3.2 3-0.5 0.4-0.3 1.1-0.3 1.7-0.7 0-1.5-0.2-1.9 0.2-0.3 0.4-0.2 1-0.2 1.6-1-0.1-1.1-1.6-2-1.3-0.9 0.2-1.9 0.3-2.7 0.8 0.6 1.2-1 0.5-0.8 0.7-1.5-0.9-2.8-1.6-4.4-1-3.4-1.1-7.6-0.6-10.7-0.2 0-0.5 0.1-1-0.1-1.1-0.2 0.5-0.8 0.3-0.7 0.3-1.9-1.3-3.8-2.1-5.8-3.2-1.8 0.2-3.5-0.7-4-1.2-1.4-1.3-3-0.6-4.3-0.9-2.8-0.7-3.8-3.6-4.1-5.6-0.2-1-1-1.4-1.3-1.3-1.3-4.2-3.3-8-4.9-11.9-0.4-1-0.3-2-0.3-3.1 0.5 0.2 1 0.1 0.9-0.6-0.5-3.3-1.7-5.8-3-8.2 0.7-3.4 0.8-7.4 2.4-10.4 1.4-2.7 4-4.1 5.8-6.4 0.6-0.8 0.6-1.9 1.2-2.6 2-2 4-4.1 6.2-5.9 1-0.8 2.2 0 3.7-0.3 0.5-1.8 2.5-3.4 4.4-2.9 0.8 0.2 2.4-1.9 2.9-2.1 0.8-0.3 0.4 0.8 0.4 1.5 1.9-1.5 4.5-2.3 6.9-3.2" fill="#233ada" fill-rule="nonzero" stroke="none" stroke-width="1" stroke-linecap="butt" stroke-linejoin="miter" stroke-miterlimit="10" stroke-dasharray="" stroke-dashoffset="0" font-family="none" font-weight="none" font-size="none" text-anchor="none" style="mix-blend-mode: normal" data-fill-palette-color="tertiary"></path></g><g transform="matrix(1,0,0,1,64,156.48977715414546)"><svg viewBox="0 0 192 47.02044569170908" height="47.02044569170908" width="192"><g><svg viewBox="0 0 192 47.02044569170908" height="47.02044569170908" width="192"><g><svg viewBox="0 0 192 47.02044569170908" height="47.02044569170908" width="192"><g transform="matrix(1,0,0,1,0,28.420026655492375)"><svg viewBox="0 0 192 18.600419036216703" height="18.600419036216703" width="192"><g id="textblocktransform"><svg viewBox="0 0 192 18.600419036216703" height="18.600419036216703" width="192" id="textblock"><g><svg viewBox="0 0 192 18.600419036216703" height="18.600419036216703" width="192"><g transform="matrix(1,0,0,1,0,0)"><svg width="192" viewBox="0.78 -36.08 501.1 48.56" height="18.600419036216703" data-palette-color="#130fab"><path d="M13.15 0.48L13.15 0.48Q9.83 0.48 7.34-0.89 4.85-2.25 3.21-4.64 1.58-7.03 0.78-10.08L0.78-10.08Q1.1-10.3 1.71-10.64 2.33-10.98 3.04-11.31 3.75-11.65 4.42-11.96 5.1-12.28 5.6-12.45L5.6-12.45Q6.13-10.33 7.18-8.49 8.22-6.65 9.8-5.53 11.38-4.4 13.5-4.4L13.5-4.4Q15.68-4.4 17-5.69 18.32-6.98 18.95-9.31 19.58-11.65 19.58-14.8L19.58-14.8Q19.58-16.35 19.45-18.54 19.33-20.73 19.16-23.05 19-25.38 18.81-27.44 18.63-29.5 18.5-30.85 18.38-32.2 18.35-32.38L18.35-32.38Q18.93-32.5 19.7-32.58 20.48-32.65 21.18-32.65L21.18-32.65Q21.93-32.65 22.55-32.63 23.18-32.6 23.7-32.52L23.7-32.52Q23.85-30.88 24.03-28.6 24.2-26.33 24.36-23.84 24.53-21.35 24.63-19.01 24.73-16.68 24.73-14.9L24.73-14.9Q24.73-11.15 23.99-8.29 23.25-5.43 21.8-3.48 20.35-1.53 18.18-0.53 16 0.48 13.15 0.48ZM42.7 0.53L42.7 0.53Q39.57 0.53 37.04-0.31 34.5-1.15 33-3.01 31.5-4.88 31.5-7.98L31.5-7.98Q31.5-10.95 33.17-12.9 34.85-14.85 37.71-15.79 40.57-16.73 44.12-16.73L44.12-16.73Q45.77-16.73 47.35-16.49 48.92-16.25 50.07-15.94 51.22-15.63 51.62-15.45L51.62-15.45Q51.55-16.28 51.34-17.14 51.12-18 50.7-18.65L50.7-18.65Q49.75-20.33 47.94-21.41 46.12-22.5 43.4-22.5L43.4-22.5Q40.52-22.5 38.52-21.26 36.52-20.03 35.52-18.32L35.52-18.32 31.47-21Q32.57-22.63 34.37-23.88 36.17-25.13 38.52-25.85 40.87-26.58 43.57-26.58L43.57-26.58Q47.77-26.58 50.52-24.98 53.27-23.38 54.55-20.75L54.55-20.75Q55.2-19.43 55.57-17.85 55.95-16.28 56.02-13.95L56.02-13.95Q56.07-11.5 56.14-9.78 56.2-8.05 56.27-6.8L56.27-6.8Q56.4-5.18 56.77-4.7 57.15-4.23 57.85-4.23L57.85-4.23Q58.65-4.23 59.2-4.91 59.75-5.6 59.82-6.85L59.82-6.85 62.22-4.2Q62.07-2.1 60.75-1 59.42 0.1 57.65 0.1L57.65 0.1Q56.25 0.1 55.19-0.44 54.12-0.98 53.5-1.83 52.87-2.68 52.77-3.58L52.77-3.58Q52.27-2.65 50.84-1.7 49.4-0.75 47.31-0.11 45.22 0.53 42.7 0.53ZM43.6-3.4L43.6-3.4Q45.22-3.4 46.77-3.9 48.32-4.4 49.64-5.23 50.95-6.05 51.8-7.05L51.8-7.05Q51.77-8.6 51.8-9.81 51.82-11.03 51.87-12.05L51.87-12.05Q51.15-12.3 49.1-12.71 47.05-13.13 44.47-13.13L44.47-13.13Q42.25-13.13 40.44-12.54 38.62-11.95 37.56-10.85 36.5-9.75 36.5-8.2L36.5-8.2Q36.5-6.33 37.41-5.29 38.32-4.25 39.92-3.83 41.52-3.4 43.6-3.4ZM69.87 0.5L69.87 0.5Q69.45 0.55 68.76 0.58 68.07 0.6 67.35 0.6L67.35 0.6Q66.57 0.6 65.82 0.54 65.07 0.48 64.75 0.38L64.75 0.38Q64.97-1.38 65.13-4.08 65.3-6.78 65.4-10.08 65.5-13.38 65.5-16.93L65.5-16.93Q65.5-20.15 65.41-23.44 65.32-26.73 65.17-29.78 65.02-32.83 64.87-35.35L64.87-35.35Q65.05-35.43 65.63-35.54 66.22-35.65 66.96-35.76 67.7-35.88 68.37-35.96 69.05-36.05 69.4-36.08L69.4-36.08Q69.77-34.2 70.03-31.39 70.3-28.58 70.45-25.26 70.6-21.95 70.65-18.55L70.65-18.55Q71.5-19.63 72.91-20.59 74.32-21.55 76.05-22.16 77.77-22.78 79.57-22.78L79.57-22.78Q82.32-22.78 83.91-21.53 85.5-20.28 86.16-18.03 86.82-15.78 86.82-12.7L86.82-12.7Q86.82-10.83 86.68-8.58 86.55-6.33 86.31-4.06 86.07-1.8 85.82 0.15L85.82 0.15Q85.25 0.23 84.61 0.26 83.97 0.3 83.32 0.3L83.32 0.3Q82.65 0.3 81.98 0.24 81.32 0.18 80.82 0.08L80.82 0.08Q81-1.13 81.2-2.64 81.4-4.15 81.57-5.76 81.75-7.38 81.86-8.93 81.97-10.48 81.97-11.8L81.97-11.8Q81.97-13.78 81.63-15.25 81.3-16.73 80.42-17.54 79.55-18.35 77.9-18.35L77.9-18.35Q76.52-18.35 75.3-17.78 74.07-17.2 73.08-16.38 72.1-15.55 71.46-14.81 70.82-14.08 70.62-13.75L70.62-13.75Q70.62-11 70.51-8.15 70.4-5.3 70.22-2.99 70.05-0.68 69.87 0.5ZM103.14 0.53L103.14 0.53Q100.02 0.53 97.48-0.31 94.94-1.15 93.44-3.01 91.94-4.88 91.94-7.98L91.94-7.98Q91.94-10.95 93.62-12.9 95.29-14.85 98.16-15.79 101.02-16.73 104.57-16.73L104.57-16.73Q106.22-16.73 107.79-16.49 109.37-16.25 110.52-15.94 111.67-15.63 112.07-15.45L112.07-15.45Q111.99-16.28 111.78-17.14 111.57-18 111.14-18.65L111.14-18.65Q110.19-20.33 108.38-21.41 106.57-22.5 103.84-22.5L103.84-22.5Q100.97-22.5 98.97-21.26 96.97-20.03 95.97-18.32L95.97-18.32 91.92-21Q93.02-22.63 94.82-23.88 96.62-25.13 98.97-25.85 101.32-26.58 104.02-26.58L104.02-26.58Q108.22-26.58 110.97-24.98 113.72-23.38 114.99-20.75L114.99-20.75Q115.64-19.43 116.02-17.85 116.39-16.28 116.47-13.95L116.47-13.95Q116.52-11.5 116.58-9.78 116.64-8.05 116.72-6.8L116.72-6.8Q116.84-5.18 117.22-4.7 117.59-4.23 118.29-4.23L118.29-4.23Q119.09-4.23 119.64-4.91 120.19-5.6 120.27-6.85L120.27-6.85 122.67-4.2Q122.52-2.1 121.19-1 119.87 0.1 118.09 0.1L118.09 0.1Q116.69 0.1 115.63-0.44 114.57-0.98 113.94-1.83 113.32-2.68 113.22-3.58L113.22-3.58Q112.72-2.65 111.28-1.7 109.84-0.75 107.76-0.11 105.67 0.53 103.14 0.53ZM104.04-3.4L104.04-3.4Q105.67-3.4 107.22-3.9 108.77-4.4 110.08-5.23 111.39-6.05 112.24-7.05L112.24-7.05Q112.22-8.6 112.24-9.81 112.27-11.03 112.32-12.05L112.32-12.05Q111.59-12.3 109.54-12.71 107.49-13.13 104.92-13.13L104.92-13.13Q102.69-13.13 100.88-12.54 99.07-11.95 98.01-10.85 96.94-9.75 96.94-8.2L96.94-8.2Q96.94-6.33 97.86-5.29 98.77-4.25 100.37-3.83 101.97-3.4 104.04-3.4ZM130.49 0.33L130.49 0.33Q130.02 0.33 129.34 0.34 128.67 0.35 127.99 0.33L127.99 0.33Q127.37 0.3 126.57 0.26 125.77 0.23 125.39 0.18L125.39 0.18Q125.64-1.9 125.83-4.36 126.02-6.83 126.14-9.91 126.27-13 126.34-16.94 126.42-20.88 126.42-25.9L126.42-25.9Q127.02-26 127.85-26.06 128.69-26.13 129.57-26.13L129.57-26.13Q130.12-26.13 130.68-26.1 131.24-26.08 131.67-26L131.67-26Q131.69-25.73 131.7-25 131.72-24.28 131.7-23.4 131.69-22.53 131.69-21.85L131.69-21.85Q132.62-22.88 134.32-23.95 136.02-25.03 138.12-25.76 140.22-26.5 142.34-26.5L142.34-26.5Q146.14-26.5 148.12-24.99 150.09-23.48 150.8-20.53 151.52-17.57 151.52-13.2L151.52-13.2Q151.52-11.5 151.43-9.35 151.34-7.2 151.15-4.8 150.97-2.4 150.67 0.08L150.67 0.08Q150.32 0.13 149.6 0.16 148.89 0.2 148.09 0.2L148.09 0.2Q147.29 0.2 146.57 0.18 145.84 0.15 145.42 0.08L145.42 0.08Q145.74-2.05 146.02-4.36 146.29-6.68 146.47-8.96 146.64-11.25 146.64-13.28L146.64-13.28Q146.64-15.88 146.25-17.82 145.87-19.78 144.73-20.85 143.59-21.93 141.39-21.93L141.39-21.93Q139.12-21.93 137.22-21.18 135.32-20.43 133.9-19.4 132.49-18.38 131.62-17.57L131.62-17.57Q131.52-13.35 131.32-9.83 131.12-6.3 130.89-3.7 130.67-1.1 130.49 0.33ZM171.54-5.78L171.54-5.78Q166.91-5.78 164.2-7.28 161.49-8.78 160.3-11.16 159.11-13.55 159.11-16.15L159.11-16.15Q159.11-19.43 160.7-21.7 162.29-23.98 164.99-25.19 167.69-26.4 171.01-26.4L171.01-26.4Q176.61-26.4 179.58-23.71 182.54-21.03 182.54-16.4L182.54-16.4Q182.54-13 181.1-10.64 179.66-8.28 177.19-7.03 174.71-5.78 171.54-5.78ZM170.26 12.48L170.26 12.48Q166.51 12.48 163.53 11.79 160.54 11.1 158.8 9.38 157.06 7.65 157.06 4.55L157.06 4.55Q157.06 2.55 158.28 0.88 159.49-0.8 161.71-1.84 163.94-2.88 167.01-2.98L167.01-2.98Q168.59-3.03 170.43-3.05 172.26-3.08 174.16-3.08L174.16-3.08Q178.14-3.08 180.73-1.44 183.31 0.2 183.31 3.73L183.31 3.73Q183.31 6.85 181.7 8.78 180.09 10.7 177.15 11.59 174.21 12.48 170.26 12.48ZM170.61 9.18L170.61 9.18Q172.76 9.18 174.55 8.74 176.34 8.3 177.41 7.26 178.49 6.23 178.49 4.45L178.49 4.45Q178.49 2.9 177.61 2.08 176.74 1.25 175.46 0.95 174.19 0.65 172.96 0.65L172.96 0.65Q171.99 0.65 170.8 0.65 169.61 0.65 168.56 0.65 167.51 0.65 166.94 0.65L166.94 0.65Q165.89 0.65 164.78 1 163.66 1.35 162.93 2.24 162.19 3.13 162.19 4.75L162.19 4.75Q162.19 6.48 163.34 7.44 164.49 8.4 166.4 8.79 168.31 9.18 170.61 9.18ZM167.01-2.95L164.71-0.93Q161.86-1.43 160.56-2.73 159.26-4.03 159.26-5.5L159.26-5.5Q159.26-6.53 159.78-7.38 160.29-8.22 161.08-8.8 161.86-9.38 162.76-9.55L162.76-9.55 165.76-7.78Q164.51-7.38 163.98-6.75 163.44-6.13 163.44-5.45L163.44-5.45Q163.44-4.53 164.41-3.74 165.39-2.95 167.01-2.95L167.01-2.95ZM170.99-9.73L170.99-9.73Q173.44-9.73 174.96-10.59 176.49-11.45 177.23-12.99 177.96-14.53 177.96-16.48L177.96-16.48Q177.96-18.23 177.13-19.56 176.29-20.9 174.81-21.69 173.34-22.48 171.41-22.48L171.41-22.48Q168.34-22.48 166.28-21.06 164.21-19.65 164.21-16.3L164.21-16.3Q164.21-13.3 166.09-11.51 167.96-9.73 170.99-9.73ZM179.84-20.95L179.84-20.95 177.06-23.25Q177.46-24.23 178.25-25.3 179.04-26.38 179.96-27.33 180.89-28.28 181.69-28.8L181.69-28.8Q181.94-28.48 182.43-27.81 182.91-27.15 183.44-26.5 183.96-25.85 184.26-25.48L184.26-25.48Q183.86-25.23 183.21-24.7 182.56-24.18 181.89-23.5 181.21-22.83 180.65-22.15 180.09-21.48 179.84-20.95ZM195.64 0.03L195.64 0.03Q195.29 0.05 194.54 0.1 193.79 0.15 193.01 0.15L193.01 0.15Q192.31 0.15 191.66 0.1 191.01 0.05 190.44-0.03L190.44-0.03Q190.54-0.68 190.69-2.71 190.84-4.75 190.99-7.55 191.14-10.35 191.26-13.33 191.39-16.3 191.46-18.89 191.54-21.48 191.54-23L191.54-23Q191.81-23.03 192.42-23.05 193.04-23.08 193.76-23.11 194.49-23.15 195.14-23.18 195.79-23.2 196.11-23.2L196.11-23.2Q196.21-22.53 196.25-21.14 196.29-19.75 196.29-18L196.29-18Q196.29-15.68 196.25-12.93 196.21-10.18 196.11-7.53 196.01-4.88 195.9-2.85 195.79-0.83 195.64 0.03ZM194.11-27.1L194.11-27.1Q192.41-27.1 191.41-28.13 190.41-29.15 190.41-30.7L190.41-30.7Q190.41-31.88 190.91-32.66 191.41-33.45 192.22-33.86 193.04-34.27 193.99-34.27L193.99-34.27Q195.51-34.27 196.45-33.2 197.39-32.13 197.39-30.53L197.39-30.53Q197.39-29.13 196.5-28.11 195.61-27.1 194.11-27.1ZM209.13-22.15L209.13-22.15Q209.88-23.43 211.32-24.48 212.76-25.53 214.57-26.15 216.38-26.78 218.21-26.78L218.21-26.78Q219.38-26.78 220.58-26.56 221.78-26.35 222.46-25.98L222.46-25.98 221.46-20.95Q220.86-21.2 219.92-21.49 218.98-21.78 217.61-21.78L217.61-21.78Q216.13-21.78 214.67-21.24 213.21-20.7 211.98-19.78 210.76-18.85 209.93-17.65L209.93-17.65Q210.28-15.9 210.62-13.38 210.96-10.85 211.23-8.2 211.51-5.55 211.68-3.36 211.86-1.18 211.86-0.08L211.86-0.08Q210.78 0.03 209.23 0.05 207.68 0.08 206.38 0.05L206.38 0.05Q206.38-2.27 206.28-4.86 206.18-7.45 205.97-10.16 205.76-12.88 205.43-15.58 205.11-18.28 204.67-20.81 204.23-23.35 203.68-25.63L203.68-25.63Q204.36-25.83 205.27-26.03 206.18-26.23 206.96-26.38 207.73-26.53 208.01-26.55L208.01-26.55Q208.33-25.7 208.68-24.35 209.03-23 209.13-22.15ZM242.65-0.03L242.65-0.03Q242.55-1.13 242.4-3.38 242.25-5.63 242.13-8.58 242-11.53 241.89-14.76 241.78-18 241.72-21.14 241.65-24.28 241.65-26.88L241.65-26.88Q241.65-28.5 241.69-29.84 241.73-31.18 241.8-32.05L241.8-32.05Q242.03-32.08 242.67-32.13 243.3-32.18 244.1-32.21 244.9-32.25 245.67-32.27 246.43-32.3 246.93-32.3L246.93-32.3Q246.83-30.93 246.79-29.16 246.75-27.4 246.75-25.78L246.75-25.78Q246.75-23.48 246.8-21.41 246.85-19.35 246.88-18.75L246.88-18.75Q247.43-18.8 248.43-18.86 249.43-18.93 250.64-18.99 251.85-19.05 253.05-19.11 254.25-19.18 255.25-19.21 256.25-19.25 256.78-19.25L256.78-19.25Q256.83-20.33 256.88-22 256.93-23.68 257-25.59 257.08-27.5 257.17-29.35 257.25-31.2 257.33-32.6L257.33-32.6Q257.68-32.63 258.14-32.64 258.6-32.65 259.1-32.65L259.1-32.65Q260.1-32.65 261.1-32.6 262.1-32.55 262.6-32.48L262.6-32.48Q262.45-31.45 262.32-29.58 262.18-27.7 262.04-25.29 261.9-22.88 261.8-20.18 261.7-17.48 261.63-14.78 261.55-12.08 261.53-9.63L261.53-9.63Q261.48-7.68 261.45-5.86 261.43-4.05 261.42-2.58 261.4-1.1 261.43-0.15L261.43-0.15Q261.03-0.1 260.24-0.06 259.45-0.03 258.54-0.01 257.63 0 256.78 0L256.78 0Q256.78-1.58 256.78-3.58 256.78-5.58 256.77-7.64 256.75-9.7 256.74-11.53 256.73-13.35 256.73-14.6L256.73-14.6Q256.23-14.58 255.25-14.56 254.28-14.55 253.09-14.51 251.9-14.48 250.72-14.45 249.53-14.43 248.57-14.41 247.6-14.4 247.1-14.4L247.1-14.4Q247.18-12.58 247.29-10.3 247.4-8.03 247.52-5.86 247.63-3.7 247.73-2.16 247.83-0.63 247.83-0.28L247.83-0.28Q247.48-0.23 246.83-0.18 246.18-0.13 245.39-0.09 244.6-0.05 243.88-0.04 243.15-0.03 242.65-0.03ZM281.2 0.78L281.2 0.78Q274.65 0.78 271.53-2.88 268.4-6.53 268.4-13.38L268.4-13.38Q268.4-17.7 270.01-20.68 271.63-23.65 274.51-25.2 277.4-26.75 281.25-26.75L281.25-26.75Q285.33-26.75 287.98-24.86 290.63-22.98 291.91-19.61 293.2-16.25 293.2-11.8L293.2-11.8Q293.2-7.98 291.78-5.16 290.35-2.35 287.66-0.79 284.98 0.78 281.2 0.78ZM281-3.7L281-3.7Q283.03-3.7 284.48-4.45 285.93-5.2 286.83-6.46 287.73-7.73 288.16-9.3 288.6-10.88 288.6-12.53L288.6-12.53Q288.6-15.53 287.78-17.88 286.95-20.23 285.28-21.56 283.6-22.9 281-22.9L281-22.9Q278.45-22.9 276.73-21.68 275-20.45 274.14-18.3 273.28-16.15 273.28-13.38L273.28-13.38Q273.28-9.1 275.25-6.4 277.23-3.7 281-3.7ZM315.3-25L315.3-25Q315.67-25.1 316.39-25.18 317.1-25.25 317.82-25.25L317.82-25.25Q318.42-25.25 319.14-25.21 319.85-25.18 320.27-25.1L320.27-25.1Q320.67-22.68 320.95-20.15 321.22-17.63 321.22-15.18L321.22-15.18Q321.22-11.83 320.65-8.85 320.07-5.88 318.76-3.61 317.45-1.35 315.24-0.05 313.02 1.25 309.75 1.25L309.75 1.25Q306.17 1.25 303.87-0.16 301.57-1.58 300.3-4.09 299.02-6.6 298.51-9.88 298-13.15 298-16.88L298-16.88Q298-19.15 298.15-21.48 298.3-23.8 298.47-26.03L298.47-26.03Q298.92-26.05 299.61-26.05 300.3-26.05 300.85-26.03L300.85-26.03Q301.62-25.98 302.39-25.89 303.15-25.8 303.65-25.65L303.65-25.65Q303.4-23.4 303.25-21.2 303.1-19 303.1-16.95L303.1-16.95Q303.1-12.55 303.84-9.5 304.57-6.45 306.06-4.88 307.55-3.3 309.8-3.3L309.8-3.3Q311.9-3.3 313.31-4.73 314.72-6.15 315.45-8.86 316.17-11.58 316.17-15.48L316.17-15.48Q316.17-17.7 315.95-20.14 315.72-22.58 315.3-25ZM337.37 2.02L337.37 2.02Q335.05 2.02 332.75 1.38 330.45 0.73 328.56-0.36 326.67-1.45 325.55-2.78L325.55-2.78Q325.72-3.13 326.05-3.73 326.37-4.33 326.8-4.99 327.22-5.65 327.65-6.21 328.07-6.78 328.4-7.08L328.4-7.08Q329.47-5.88 330.97-4.76 332.47-3.65 334.2-2.96 335.92-2.27 337.65-2.27L337.65-2.27Q339.3-2.27 340.63-2.76 341.97-3.25 342.76-4.17 343.55-5.1 343.55-6.4L343.55-6.4Q343.55-7.9 342.6-8.99 341.65-10.08 340.05-10.91 338.45-11.75 336.52-12.45L336.52-12.45Q334.2-13.3 332.28-14.31 330.37-15.33 329.23-16.85 328.1-18.38 328.1-20.73L328.1-20.73Q328.1-23.13 329.46-24.73 330.82-26.33 333.06-27.15 335.3-27.98 337.9-27.98L337.9-27.98Q340.8-27.98 343.23-27.24 345.67-26.5 346.97-25.53L346.97-25.53Q346.87-25.1 346.55-24.41 346.22-23.73 345.8-23.03 345.37-22.33 344.92-21.75L344.92-21.75Q343.72-22.55 342-23.28 340.27-24 338.25-24L338.25-24Q336.9-24 335.65-23.69 334.4-23.38 333.6-22.65 332.8-21.93 332.8-20.68L332.8-20.68Q332.8-19.6 333.58-18.75 334.37-17.9 335.72-17.24 337.07-16.57 338.77-15.98L338.77-15.98Q340.82-15.28 342.57-14.41 344.32-13.55 345.61-12.44 346.9-11.33 347.62-9.89 348.35-8.45 348.35-6.65L348.35-6.65Q348.35-3.78 346.87-1.85 345.4 0.08 342.92 1.05 340.45 2.02 337.37 2.02ZM375.67-5.58L375.67-5.58Q375.17-4.88 374.19-3.96 373.22-3.05 371.77-2.21 370.32-1.38 368.39-0.83 366.47-0.28 364.04-0.28L364.04-0.28Q360.29-0.28 357.47-1.8 354.64-3.33 353.09-6.26 351.54-9.2 351.54-13.43L351.54-13.43Q351.54-17.48 353.23-20.45 354.92-23.43 357.87-25.05 360.82-26.68 364.64-26.68L364.64-26.68Q369.44-26.68 372.13-23.75 374.82-20.83 375.12-15.9L375.12-15.9Q375.17-15.1 375.17-14.36 375.17-13.63 375.09-12.85L375.09-12.85Q374.77-12.88 373.76-12.91 372.74-12.95 371.39-12.99 370.04-13.03 368.68-13.06 367.32-13.1 366.34-13.1L366.34-13.1Q363.82-13.1 361.17-12.85 358.52-12.6 356.44-12.28L356.44-12.28Q356.47-11.63 356.57-11 356.67-10.38 356.82-9.8L356.82-9.8Q357.24-8.28 358.37-7.16 359.49-6.05 361.06-5.45 362.62-4.85 364.37-4.85L364.37-4.85Q366.22-4.85 367.59-5.4 368.97-5.95 369.96-6.75 370.94-7.55 371.56-8.28 372.17-9 372.49-9.35L372.49-9.35Q372.64-9.22 373.08-8.81 373.52-8.4 374.03-7.83 374.54-7.25 375.01-6.66 375.47-6.08 375.67-5.58ZM356.52-15.63L356.52-15.63Q358.32-15.93 360.76-16.15 363.19-16.38 366.29-16.38L366.29-16.38Q367.92-16.38 369.06-16.34 370.19-16.3 370.64-16.25L370.64-16.25Q370.64-17.07 370.44-18L370.44-18Q370.17-19.25 369.44-20.43 368.72-21.6 367.48-22.39 366.24-23.18 364.37-23.18L364.37-23.18Q362.22-23.18 360.46-22.26 358.69-21.35 357.64-19.66 356.59-17.98 356.52-15.63ZM396.46-0.45L396.46-0.45Q396.46-1.43 396.49-3.56 396.51-5.7 396.55-8.56 396.59-11.43 396.63-14.59 396.66-17.75 396.71-20.79 396.76-23.83 396.8-26.34 396.84-28.85 396.86-30.41 396.89-31.98 396.89-32.13L396.89-32.13Q397.99-32.23 399.56-32.35 401.14-32.48 403.03-32.56 404.91-32.65 406.91-32.65L406.91-32.65Q409.61-32.65 411.74-31.89 413.86-31.13 415.09-29.48 416.31-27.83 416.31-25.15L416.31-25.15Q416.31-23.3 415.49-21.61 414.66-19.93 413.4-18.76 412.14-17.6 410.79-17.3L410.79-17.3Q410.91-17.32 411.05-17.32 411.19-17.32 411.36-17.3L411.36-17.3Q413.51-17.25 415.29-16.35 417.06-15.45 418.1-13.88 419.14-12.3 419.14-10.2L419.14-10.2Q419.14-7 417.79-5.03 416.44-3.05 414.03-1.98 411.61-0.9 408.44-0.49 405.26-0.08 401.61-0.08L401.61-0.08Q400.19-0.08 398.85-0.16 397.51-0.25 396.46-0.45ZM401.71-14.63L401.69-4.75Q401.86-4.75 402.16-4.75 402.46-4.75 402.86-4.75L402.86-4.75Q405.09-4.75 407.15-4.96 409.21-5.18 410.88-5.76 412.54-6.35 413.51-7.45 414.49-8.55 414.49-10.35L414.49-10.35Q414.49-11.65 413.88-12.51 413.26-13.38 412.16-13.88 411.06-14.38 409.63-14.59 408.19-14.8 406.51-14.8L406.51-14.8Q406.09-14.8 405.16-14.79 404.24-14.78 403.25-14.74 402.26-14.7 401.71-14.63L401.71-14.63ZM401.56-28.58L401.64-18.65Q404.39-18.7 405.9-18.86 407.41-19.03 408.39-19.55L408.39-19.55Q409.84-20.1 410.89-21.46 411.94-22.83 411.94-24.53L411.94-24.53Q411.94-27 410.46-27.99 408.99-28.98 406.51-28.98L406.51-28.98Q405.14-28.98 403.75-28.83 402.36-28.68 401.56-28.58L401.56-28.58ZM437.04 0.78L437.04 0.78Q430.49 0.78 427.36-2.88 424.24-6.53 424.24-13.38L424.24-13.38Q424.24-17.7 425.85-20.68 427.46-23.65 430.35-25.2 433.24-26.75 437.09-26.75L437.09-26.75Q441.16-26.75 443.81-24.86 446.46-22.98 447.75-19.61 449.04-16.25 449.04-11.8L449.04-11.8Q449.04-7.98 447.61-5.16 446.19-2.35 443.5-0.79 440.81 0.78 437.04 0.78ZM436.84-3.7L436.84-3.7Q438.86-3.7 440.31-4.45 441.76-5.2 442.66-6.46 443.56-7.73 444-9.3 444.44-10.88 444.44-12.53L444.44-12.53Q444.44-15.53 443.61-17.88 442.79-20.23 441.11-21.56 439.44-22.9 436.84-22.9L436.84-22.9Q434.29-22.9 432.56-21.68 430.84-20.45 429.97-18.3 429.11-16.15 429.11-13.38L429.11-13.38Q429.11-9.1 431.09-6.4 433.06-3.7 436.84-3.7ZM464.18 0.53L464.18 0.53Q461.06 0.53 458.52-0.31 455.98-1.15 454.48-3.01 452.98-4.88 452.98-7.98L452.98-7.98Q452.98-10.95 454.66-12.9 456.33-14.85 459.2-15.79 462.06-16.73 465.61-16.73L465.61-16.73Q467.26-16.73 468.83-16.49 470.41-16.25 471.56-15.94 472.71-15.63 473.11-15.45L473.11-15.45Q473.03-16.28 472.82-17.14 472.61-18 472.18-18.65L472.18-18.65Q471.23-20.33 469.42-21.41 467.61-22.5 464.88-22.5L464.88-22.5Q462.01-22.5 460.01-21.26 458.01-20.03 457.01-18.32L457.01-18.32 452.96-21Q454.06-22.63 455.86-23.88 457.66-25.13 460.01-25.85 462.36-26.58 465.06-26.58L465.06-26.58Q469.26-26.58 472.01-24.98 474.76-23.38 476.03-20.75L476.03-20.75Q476.68-19.43 477.06-17.85 477.43-16.28 477.51-13.95L477.51-13.95Q477.56-11.5 477.62-9.78 477.68-8.05 477.76-6.8L477.76-6.8Q477.88-5.18 478.26-4.7 478.63-4.23 479.33-4.23L479.33-4.23Q480.13-4.23 480.68-4.91 481.23-5.6 481.31-6.85L481.31-6.85 483.71-4.2Q483.56-2.1 482.23-1 480.91 0.1 479.13 0.1L479.13 0.1Q477.73 0.1 476.67-0.44 475.61-0.98 474.98-1.83 474.36-2.68 474.26-3.58L474.26-3.58Q473.76-2.65 472.32-1.7 470.88-0.75 468.8-0.11 466.71 0.53 464.18 0.53ZM465.08-3.4L465.08-3.4Q466.71-3.4 468.26-3.9 469.81-4.4 471.12-5.23 472.43-6.05 473.28-7.05L473.28-7.05Q473.26-8.6 473.28-9.81 473.31-11.03 473.36-12.05L473.36-12.05Q472.63-12.3 470.58-12.71 468.53-13.13 465.96-13.13L465.96-13.13Q463.73-13.13 461.92-12.54 460.11-11.95 459.05-10.85 457.98-9.75 457.98-8.2L457.98-8.2Q457.98-6.33 458.9-5.29 459.81-4.25 461.41-3.83 463.01-3.4 465.08-3.4ZM501.88-4.65L501.88-4.65Q501.51-3.45 500.73-2.14 499.96-0.83 498.58 0.09 497.21 1 495.03 1L495.03 1Q492.23 1 490.59-0.23 488.96-1.45 488.26-3.45 487.56-5.45 487.56-7.8L487.56-7.8Q487.56-9.03 487.59-10.7 487.63-12.38 487.68-14.18 487.73-15.98 487.79-17.66 487.86-19.35 487.91-20.64 487.96-21.93 487.98-22.55L487.98-22.55Q485.53-22.3 483.74-22.01 481.96-21.73 481.46-21.58L481.46-21.58Q481.31-22.38 481.22-23.26 481.13-24.15 481.09-24.88 481.06-25.6 481.06-25.85L481.06-25.85Q482.46-26.05 484.32-26.28 486.18-26.5 488.01-26.63L488.01-26.63Q488.03-27.6 488.03-29.04 488.03-30.48 488.03-31.75L488.03-31.75Q488.01-32.83 487.93-33.84 487.86-34.85 487.81-35.52L487.81-35.52 492.51-35.8Q492.56-35.43 492.62-34.01 492.68-32.6 492.68-30.6L492.68-30.6Q492.68-29.85 492.68-28.79 492.68-27.73 492.68-26.9L492.68-26.9Q493.43-26.95 494.53-27 495.63-27.05 496.31-27.05L496.31-27.05Q497.48-27.08 498.56-27.08 499.63-27.08 500.41-27.05 501.18-27.03 501.36-27L501.36-27Q501.48-26.33 501.52-25.13 501.56-23.93 501.56-23.13L501.56-23.13Q501.31-23.15 499.84-23.16 498.38-23.18 496.96-23.15L496.96-23.15Q495.93-23.13 494.71-23.06 493.48-23 492.61-22.95L492.61-22.95Q492.58-22.3 492.52-21.03 492.46-19.75 492.41-18.16 492.36-16.57 492.31-14.94 492.26-13.3 492.23-11.89 492.21-10.48 492.21-9.6L492.21-9.6Q492.21-8.03 492.39-6.6 492.58-5.18 493.29-4.26 494.01-3.35 495.56-3.35L495.56-3.35Q496.61-3.35 497.26-4.1 497.91-4.85 498.27-5.83 498.63-6.8 498.81-7.45L498.81-7.45Q499.03-7.2 499.47-6.79 499.91-6.38 500.42-5.93 500.93-5.48 501.34-5.13 501.76-4.78 501.88-4.65Z" opacity="1" transform="matrix(1,0,0,1,0,0)" fill="#130fab" class="wordmark-text-0" data-fill-palette-color="primary" id="text-0"></path></svg></g></svg></g></svg></g></svg></g><g transform="matrix(1,0,0,1,55.28301240810021,0)"><svg viewBox="0 0 81.43397518379957 25.705779108051487" height="25.705779108051487" width="81.43397518379957"><g><svg xmlns="http://www.w3.org/2000/svg" xmlns:xlink="http://www.w3.org/1999/xlink" version="1.1" x="0" y="0" viewBox="0.496 34 99.008716363224 31.25349323621228" enable-background="new 0 0 100 100" xml:space="preserve" height="25.705779108051487" width="81.43397518379957" class="icon-icon-0" data-fill-palette-color="accent" id="icon-0"><path d="M96.643 51.111C95.6 50.755 10.103 51.111 10.103 51.111 8.409 51.804 5.412 53.014 5.436 57.464 5.458 61.624 8.552 65.117 14.302 65.087 14.302 65.087 40.648 65.487 49.416 65.047 65.181 64.255 97.652 58.307 99.473 54.328 99.795 53.621 97.581 51.433 96.643 51.111M49.118 62.113C40.18 62.329 13.355 62.09 13.355 62.09 10.369 61.79 8.958 59.987 8.943 57.373 8.933 55.631 9.931 54.005 11.004 53.351L96.428 53.146C97.651 55.83 67.383 61.673 49.118 62.113" fill="#1a33de" data-fill-palette-color="accent"></path><path d="M82.819 45H55.316L40 35.443V39.46L49.6 45.118 20.072 45H13.075C10.197 45 7.996 41 5.996 38H12.463L9.795 34H0.496C1.277 37 5.065 44.016 10.03 47.788L10.037 48H85.544z" fill="#1a33de" data-fill-palette-color="accent"></path></svg></g></svg></g><g></g></svg></g></svg></g></svg></g></svg></g><defs></defs></svg><rect width="320" height="360" fill="none" stroke="none" visibility="hidden"></rect></g></svg></g></svg>